<svg width="14" height="17" viewBox="0 0 14 17" fill="none" xmlns="http://www.w3.org/2000/svg">
<g id="Group">
<g id="02 User">
<path id="Vector" d="M0.683717 16.2089C0.548497 16.2089 0.416308 16.1625 0.303869 16.0755C0.191429 15.9886 0.103792 15.8649 0.0520426 15.7203C0.000292827 15.5757 -0.0132447 15.4165 0.0131423 15.263C0.0395293 15.1094 0.104655 14.9684 0.200283 14.8577L12.833 0.231839C12.9612 0.0833949 13.1351 0 13.3164 0C13.4978 0 13.6717 0.0833949 13.7999 0.231839C13.9281 0.380283 14.0001 0.581616 14.0001 0.791547C14.0001 1.00148 13.9281 1.20281 13.7999 1.35126L1.16715 15.9771C1.10372 16.0507 1.02837 16.1091 0.945403 16.1488C0.86244 16.1886 0.773509 16.209 0.683717 16.2089Z" fill="#808080"/>
<path id="Vector_2" d="M13.3168 16.2089C13.227 16.209 13.1381 16.1886 13.0551 16.1488C12.9721 16.1091 12.8968 16.0507 12.8333 15.9771L0.200611 1.35126C0.0723965 1.20281 0.000366211 1.00148 0.000366211 0.791547C0.000366211 0.581616 0.0723965 0.380283 0.200611 0.231839C0.328826 0.0833949 0.502723 0 0.684046 0C0.865369 0 1.03927 0.0833949 1.16748 0.231839L13.8002 14.8577C13.8958 14.9684 13.961 15.1094 13.9874 15.263C14.0137 15.4165 14.0002 15.5757 13.9485 15.7203C13.8967 15.8649 13.8091 15.9886 13.6966 16.0755C13.5842 16.1625 13.452 16.2089 13.3168 16.2089Z" fill="#808080"/>
</g>
</g>
</svg>
